# xmcd
#
# Track frame offsets:
#	150
#	15410
#	32969
#	51273
#	69632
#	82370
#	99906
#	120832
#	135719
#	151734
#
# Disc length: 2221 seconds
#
# Revision: 0
# Processed by: cddbd v1.5.2PL0 Copyright (c) Steve Scherf et al.
# Submitted via: EZCDAudioConverter 3.1.0.1
#
DISCID=7a08ab0a
DTITLE=Zizi Possi - Dê Um Rolê
DYEAR=1984
DGENRE=MPB
TTITLE0=Dê um rolê
TTITLE1=Lábios
TTITLE2=Depois me diz
TTITLE3=Papel marchê
TTITLE4=Pássaro sem ninho
TTITLE5=Cigana nuvem
TTITLE6=Febril
TTITLE7=Luiza
TTITLE8=Nobreza
TTITLE9=Brilho louco
EXTD=
EXTT0=
EXTT1=
EXTT2=
EXTT3=
EXTT4=
EXTT5=
EXTT6=
EXTT7=
EXTT8=
EXTT9=
PLAYORDER=
